<svg xmlns="http://www.w3.org/2000/svg" width="19" height="19"><symbol id="sw-logo"><path d="m16.701 11.022-4.006-9.178-.874-.605-1.024-.326L9.411.54l-1.626.699-1.085.605 4.097 9.178h5.904Z" fill="url('#paint0_linear_102_283')"/><path d="m2.323 7.954 4.007 9.198.873.607 1.024.327 1.386.374 1.627-.7 1.084-.608-4.097-9.199H2.323Z" fill="url('#paint1_linear_102_283')"/><path d="m6.486 1.965-6.22 8.99 6.22.067 4.496-9.057c.316-.927 1.304-.386 1.758 0-1.942-3.558-4.979-1.483-6.254 0ZM12.514 17.035l6.22-8.99-6.22-.067-4.496 9.057c-.316.927-1.304.387-1.758 0 1.942 3.558 4.979 1.483 6.254 0Z" fill="#fff"/><defs><linearGradient id="paint0_linear_102_283" x1="15.665" y1="11.022" x2="10.914" y2="2.133" gradientUnits="userSpaceOnUse"><stop/><stop offset=".495" stop-color="#fff"/><stop offset="1" stop-color="#fff"/></linearGradient><linearGradient id="paint1_linear_102_283" x1="3.359" y1="7.954" x2="8.128" y2="16.854" gradientUnits="userSpaceOnUse"><stop stop-color="#0C0C0C"/><stop offset=".495" stop-color="#fff"/><stop offset="1" stop-color="#fff"/></linearGradient></defs></symbol><symbol id="icon-close" viewBox="0 0 24 24"><path d="M8 .806 7.194 0 4 3.194.806 0 0 .806 3.194 4 0 7.194.806 8 4 4.806 7.194 8 8 7.194 4.806 4 8 .806Z"/></symbol><symbol id="heart" viewBox="0 0 24 24"><path d="M20.84 4.61a5.5 5.5 0 0 0-7.78 0L12 5.67l-1.06-1.06a5.501 5.501 0 1 0-7.78 7.78l1.06 1.06L12 21.23l7.78-7.78 1.06-1.06a5.499 5.499 0 0 0 0-7.78Z"/></symbol><symbol id="mobile-menu-icon" viewBox="0 0 24 24"><path d="M2 5.995c0-.55.446-.995.995-.995h8.01a.995.995 0 1 1 0 1.99h-8.01A.995.995 0 0 1 2 5.995ZM2 12c0-.55.446-.995.995-.995h18.01a.995.995 0 1 1 0 1.99H2.995A.995.995 0 0 1 2 12Zm.995 5.01a.995.995 0 1 0 0 1.99h12.01a.995.995 0 1 0 0-1.99H2.995Z"/></symbol><symbol id="minus" viewBox="0 0 16 2" fill="none"><path d="M0 1h16" stroke="#141414"/></symbol><defs><symbol id="icon-logo" viewBox="0 0 32 32"><path fill="#fff" style="fill:var(--color1,#fff)" d="M28.129 18.564 21.381 3.107l-1.471-1.02-1.725-.549L15.851.91l-2.74 1.177-1.826 1.02 6.9 15.457h9.944zM3.913 13.395l6.748 15.493 1.471 1.022 1.725.551 2.334.629 2.74-1.18 1.826-1.022-6.9-15.493H3.913z"/><path fill="#fff" style="fill:var(--color2,#fff)" d="M10.924 3.309.448 18.451l10.476.112 7.573-15.255c.532-1.561 2.195-.65 2.961 0-3.271-5.993-8.385-2.497-10.533 0zM21.076 28.691l10.476-15.142-10.476-.112-7.573 15.255c-.532 1.561-2.195.65-2.961 0 3.271 5.993 8.385 2.497 10.533 0z"/></symbol><symbol id="icon-fb" viewBox="0 0 13 32"><path fill="#fff" style="fill:var(--color1,#fff)" d="M11.328.096h1.344v5.04h-1.68c-.672 0-1.344 0-1.68.336s-.336.672-.336 1.456V8.72h3.696v4.256H8.976v18.48H3.264V12.864H.24V8.608h3.024V7.152c0-2.464.336-4.256 1.008-5.04C5.28.656 7.296-.016 10.32-.016c.336.112.672.112 1.008.112z"/></symbol><symbol id="icon-ig" viewBox="0 0 32 32"><path fill="#fff" style="fill:var(--color1,#fff)" d="M28.718 10.757a9.225 9.225 0 0 0-.617-3.208l.021.063a6.588 6.588 0 0 0-3.7-3.722l-.044-.015a9.192 9.192 0 0 0-3.097-.596h-.01c-1.367-.061-1.801-.078-5.271-.078-3.472 0-3.917 0-5.274.078a9.384 9.384 0 0 0-3.106.597 6.58 6.58 0 0 0-3.727 3.693l-.015.044a9.084 9.084 0 0 0-.595 3.091v.009c-.062 1.367-.08 1.8-.08 5.265 0 3.466 0 3.909.08 5.265a9.374 9.374 0 0 0 .594 3.104 6.591 6.591 0 0 0 3.701 3.721l.044.015c.917.37 1.979.601 3.091.638h.016c1.369.061 1.802.08 5.274.08s3.917 0 5.274-.08a9.383 9.383 0 0 0 3.172-.616l-.064.022a6.594 6.594 0 0 0 3.727-3.693l.016-.044a9.3 9.3 0 0 0 .595-3.104c.062-1.366.08-1.799.08-5.266-.002-3.465-.002-3.905-.082-5.263zM15.989 22.531h-.007a6.565 6.565 0 0 1-6.565-6.561 6.566 6.566 0 0 1 6.566-6.561h.006c3.629 0 6.571 2.937 6.571 6.561a6.567 6.567 0 0 1-6.567 6.56h-.005zm6.834-11.835a1.53 1.53 0 1 1 0-3.06 1.53 1.53 0 1 1 0 3.06z"/><path fill="#fff" style="fill:var(--color1,#fff)" d="M15.992 19.976a4.004 4.004 0 0 0 0-8.008 4.004 4.004 0 0 0 0 8.008z"/></symbol><symbol id="icon-yt" viewBox="0 0 46 32"><path fill="#fff" style="fill:var(--color1,#fff)" d="M35.929.444C33.813.32 29.458.195 22.862.195h-.871c-6.347 0-10.578.124-12.693.373-2.862.249-4.853.996-5.973 1.991-.996.871-1.742 2.489-1.991 4.604-.124 1.369-.249 4.231-.249 8.587v.622c0 4.107.124 6.969.373 8.338.373 1.991.996 3.484 2.24 4.356 1.244.996 3.36 1.618 6.347 1.867 2.116.124 6.471.249 13.067.249h.871c6.347 0 10.578-.124 12.693-.373 2.862-.249 4.853-.996 5.973-1.991.996-.871 1.742-2.489 1.991-4.604.124-1.369.249-4.231.249-8.587v-.622c0-4.107-.124-6.969-.373-8.338-.373-1.991-.996-3.484-2.24-4.356-1.244-.996-3.36-1.618-6.347-1.867zm-4.853 15.307-13.689 8.213V7.537l13.689 8.213z"/></symbol></defs></svg>