<svg xmlns="http://www.w3.org/2000/svg" width="19" height="19"><symbol id="sw-logo"><path d="m16.701 11.022-4.006-9.178-.874-.605-1.024-.326L9.411.54l-1.626.699-1.085.605 4.097 9.178h5.904Z" fill="url('#paint0_linear_102_283')"/><path d="m2.323 7.954 4.007 9.198.873.607 1.024.327 1.386.374 1.627-.7 1.084-.608-4.097-9.199H2.323Z" fill="url('#paint1_linear_102_283')"/><path d="m6.486 1.965-6.22 8.99 6.22.067 4.496-9.057c.316-.927 1.304-.386 1.758 0-1.942-3.558-4.979-1.483-6.254 0ZM12.514 17.035l6.22-8.99-6.22-.067-4.496 9.057c-.316.927-1.304.387-1.758 0 1.942 3.558 4.979 1.483 6.254 0Z" fill="#fff"/><defs><linearGradient id="paint0_linear_102_283" x1="15.665" y1="11.022" x2="10.914" y2="2.133" gradientUnits="userSpaceOnUse"><stop/><stop offset=".495" stop-color="#fff"/><stop offset="1" stop-color="#fff"/></linearGradient><linearGradient id="paint1_linear_102_283" x1="3.359" y1="7.954" x2="8.128" y2="16.854" gradientUnits="userSpaceOnUse"><stop stop-color="#0C0C0C"/><stop offset=".495" stop-color="#fff"/><stop offset="1" stop-color="#fff"/></linearGradient></defs></symbol><symbol id="icon-close" viewBox="0 0 24 24"><path d="M8 .806 7.194 0 4 3.194.806 0 0 .806 3.194 4 0 7.194.806 8 4 4.806 7.194 8 8 7.194 4.806 4 8 .806Z"/></symbol><symbol id="heart" viewBox="0 0 24 24"><path d="M20.84 4.61a5.5 5.5 0 0 0-7.78 0L12 5.67l-1.06-1.06a5.501 5.501 0 1 0-7.78 7.78l1.06 1.06L12 21.23l7.78-7.78 1.06-1.06a5.499 5.499 0 0 0 0-7.78Z"/></symbol><defs><symbol id="icon-logo" viewBox="0 0 32 32"><path fill="#fff" style="fill:var(--color1,#fff)" d="M28.129 18.564 21.381 3.107l-1.471-1.02-1.725-.549L15.851.91l-2.74 1.177-1.826 1.02 6.9 15.457h9.944zM3.913 13.395l6.748 15.493 1.471 1.022 1.725.551 2.334.629 2.74-1.18 1.826-1.022-6.9-15.493H3.913z"/><path fill="#fff" style="fill:var(--color2,#fff)" d="M10.924 3.309.448 18.451l10.476.112 7.573-15.255c.532-1.561 2.195-.65 2.961 0-3.271-5.993-8.385-2.497-10.533 0zM21.076 28.691l10.476-15.142-10.476-.112-7.573 15.255c-.532 1.561-2.195.65-2.961 0 3.271 5.993 8.385 2.497 10.533 0z"/></symbol><symbol id="icon-fb" viewBox="0 0 13 32"><path fill="#fff" style="fill:var(--color1,#fff)" d="M11.328.096h1.344v5.04h-1.68c-.672 0-1.344 0-1.68.336s-.336.672-.336 1.456V8.72h3.696v4.256H8.976v18.48H3.264V12.864H.24V8.608h3.024V7.152c0-2.464.336-4.256 1.008-5.04C5.28.656 7.296-.016 10.32-.016c.336.112.672.112 1.008.112z"/></symbol><symbol id="icon-ig" viewBox="0 0 32 32"><path fill="#fff" style="fill:var(--color1,#fff)" d="M31.261 9.707a11.09 11.09 0 0 0-.741-3.85l.026.076a7.903 7.903 0 0 0-4.436-4.465l-.053-.019a11.038 11.038 0 0 0-3.716-.715h-.012C20.686.66 20.164.64 15.998.64S11.3.64 9.67.734a11.245 11.245 0 0 0-3.805.741l.077-.026a7.898 7.898 0 0 0-4.471 4.43l-.019.053a10.907 10.907 0 0 0-.715 3.711v.011c-.074 1.64-.096 2.16-.096 6.318 0 4.16 0 4.69.096 6.318.027 1.345.286 2.621.74 3.802l-.026-.077a7.902 7.902 0 0 0 4.441 4.463l.053.018c1.187.464 2.448.726 3.728.768 1.642.072 2.162.094 6.328.094s4.699 0 6.33-.096a11.225 11.225 0 0 0 3.805-.74l-.077.026a7.912 7.912 0 0 0 4.474-4.43l.019-.053c.428-1.104.687-2.38.713-3.714v-.011c.074-1.638.096-2.158.096-6.32-.003-4.157-.003-4.685-.099-6.315zM15.989 23.838h-.01a7.878 7.878 0 0 1-7.878-7.873 7.879 7.879 0 0 1 7.878-7.874h.01-.001.006a7.88 7.88 0 0 1 7.88 7.872 7.88 7.88 0 0 1-7.88 7.874h-.008zm8.2-14.203a1.836 1.836 0 1 1 0-3.672 1.836 1.836 0 1 1 0 3.672z"/></symbol><symbol id="icon-yt" viewBox="0 0 46 32"><path fill="#fff" style="fill:var(--color1,#fff)" d="M35.929.444C33.813.32 29.458.195 22.862.195h-.871c-6.347 0-10.578.124-12.693.373-2.862.249-4.853.996-5.973 1.991-.996.871-1.742 2.489-1.991 4.604-.124 1.369-.249 4.231-.249 8.587v.622c0 4.107.124 6.969.373 8.338.373 1.991.996 3.484 2.24 4.356 1.244.996 3.36 1.618 6.347 1.867 2.116.124 6.471.249 13.067.249h.871c6.347 0 10.578-.124 12.693-.373 2.862-.249 4.853-.996 5.973-1.991.996-.871 1.742-2.489 1.991-4.604.124-1.369.249-4.231.249-8.587v-.622c0-4.107-.124-6.969-.373-8.338-.373-1.991-.996-3.484-2.24-4.356-1.244-.996-3.36-1.618-6.347-1.867zm-4.853 15.307-13.689 8.213V7.537l13.689 8.213z"/></symbol></defs></svg>