<svg xmlns="http://www.w3.org/2000/svg" overflow="hidden">
  <defs>
    <symbol id="icon-logo" viewBox="0 0 32 32">
<path d="M28.129 18.564l-6.748-15.457-1.472-1.020-1.725-0.549-2.333-0.628-2.74 1.177-1.827 1.020 6.9 15.457h9.944z"></path>
<path d="M3.912 13.395l6.748 15.493 1.471 1.022 1.725 0.55 2.334 0.629 2.739-1.18 1.827-1.022-6.899-15.493h-9.946z"></path>
<path fill="#fff" style="fill: var(--color2, #fff)" d="M10.924 3.309l-10.476 15.142 10.476 0.112 7.572-15.254c0.532-1.56 2.195-0.65 2.961 0-3.27-5.992-8.385-2.497-10.533 0zM21.076 28.691l10.476-15.142-10.476-0.112-7.573 15.254c-0.531 1.56-2.195 0.65-2.96 0 3.27 5.992 8.385 2.497 10.533 0z"></path>
    </symbol>

    <symbol id="icon-fb" viewBox="0 0 13 32">
<path fill="#fff" style="fill: var(--color1, #fff)" d="M11.328 0.096h1.344v5.040h-1.68c-0.672 0-1.344 0-1.68 0.336s-0.336 0.672-0.336 1.456v1.792h3.696v4.256h-3.696v18.48h-5.712v-18.592h-3.024v-4.256h3.024v-1.456c0-2.464 0.336-4.256 1.008-5.040 1.008-1.456 3.024-2.128 6.048-2.128 0.336 0.112 0.672 0.112 1.008 0.112z"></path>
    </symbol>

    <symbol id="icon-ig" viewBox="0 0 32 32">
<path fill="#fff" style="fill: var(--color1, #fff)" d="M31.261 9.707c-0.019-1.361-0.28-2.656-0.741-3.85l0.026 0.076c-0.817-2.065-2.423-3.669-4.436-4.465l-0.053-0.019c-1.104-0.427-2.382-0.687-3.716-0.715l-0.012-0c-1.643-0.074-2.165-0.094-6.331-0.094s-4.698 0-6.328 0.094c-1.346 0.028-2.624 0.288-3.805 0.741l0.077-0.026c-2.067 0.814-3.673 2.418-4.471 4.43l-0.019 0.053c-0.429 1.102-0.689 2.378-0.715 3.711l-0 0.011c-0.074 1.64-0.096 2.16-0.096 6.318 0 4.16 0 4.69 0.096 6.318 0.027 1.345 0.286 2.621 0.74 3.802l-0.026-0.077c0.819 2.065 2.426 3.669 4.441 4.463l0.053 0.018c1.187 0.464 2.448 0.726 3.728 0.768 1.642 0.072 2.162 0.094 6.328 0.094s4.699 0 6.33-0.096c1.346-0.027 2.623-0.287 3.805-0.74l-0.077 0.026c2.067-0.815 3.674-2.418 4.474-4.43l0.019-0.053c0.428-1.104 0.687-2.38 0.713-3.714l0-0.011c0.074-1.638 0.096-2.158 0.096-6.32-0.003-4.157-0.003-4.685-0.099-6.315zM15.989 23.838c-0.003 0-0.006 0-0.010 0-4.349 0-7.876-3.525-7.878-7.873v-0c0.003-4.349 3.529-7.874 7.878-7.874 0.003 0 0.007 0 0.010 0h-0.001c0.002 0 0.004 0 0.006 0 4.349 0 7.875 3.523 7.88 7.872v0c-0.004 4.349-3.53 7.874-7.88 7.874-0.003 0-0.006 0-0.008 0h0zM24.189 9.635c-1.014 0-1.836-0.822-1.836-1.836s0.822-1.836 1.836-1.836v0c1.014 0 1.836 0.822 1.836 1.836s-0.822 1.836-1.836 1.836v0z"></path>
</symbol>

    <symbol id="icon-yt" viewBox="0 0 46 32">
<path fill="#fff" style="fill: var(--color1, #fff)" d="M35.929 0.444c-2.116-0.124-6.471-0.249-13.067-0.249h-0.871c-6.347 0-10.578 0.124-12.693 0.373-2.862 0.249-4.853 0.996-5.973 1.991-0.996 0.871-1.742 2.489-1.991 4.604-0.124 1.369-0.249 4.231-0.249 8.587v0.622c0 4.107 0.124 6.969 0.373 8.338 0.373 1.991 0.996 3.484 2.24 4.356 1.244 0.996 3.36 1.618 6.347 1.867 2.116 0.124 6.471 0.249 13.067 0.249h0.871c6.347 0 10.578-0.124 12.693-0.373 2.862-0.249 4.853-0.996 5.973-1.991 0.996-0.871 1.742-2.489 1.991-4.604 0.124-1.369 0.249-4.231 0.249-8.587v-0.622c0-4.107-0.124-6.969-0.373-8.338-0.373-1.991-0.996-3.484-2.24-4.356-1.244-0.996-3.36-1.618-6.347-1.867zM31.076 15.751l-13.689 8.213v-16.427l13.689 8.213z"></path>
    </symbol>
  </defs>
</svg>